<?xml version="1.0" encoding="utf-8"?>
<!-- Generator: Adobe Illustrator 23.0.6, SVG Export Plug-In . SVG Version: 6.00 Build 0)  -->
<svg version="1.1" id="Layer_1" xmlns="http://www.w3.org/2000/svg" xmlns:xlink="http://www.w3.org/1999/xlink" x="0px" y="0px"
	 viewBox="0 0 480 122.5" style="enable-background:new 0 0 480 122.5;" xml:space="preserve">
<style type="text/css">
	.st0{display:none;}
	.st1{display:inline;}
	.st2{fill:#0BCC42;}
	.st3{fill:#332F2E;}
	.st4{display:inline;fill:#0BCC42;}
	.st5{fill:#FAFAFA;}
	.st6{font-family:'MoskExtra-Bold800';}
	.st7{font-size:92.512px;}
	.st8{fill:#23CA4B;}
</style>
<g class="st0">
	<g class="st1">
		<path class="st2" d="M83.8,44.9L68.4,91.2H52.6l-7.3-24l-7.2,24H22.3L8.2,47.8l16-4.6l6.7,28l6.4-26.2h16.3l6.9,26.2l6-26.2H83.8z
			"/>
		<path class="st2" d="M108.5,23.2c0,2.5-0.9,4.7-2.8,6.6c-1.9,1.8-4.1,2.8-6.7,2.8c-2.5,0-4.7-0.9-6.6-2.8c-1.8-1.8-2.8-4-2.8-6.6
			c0-2.6,0.9-4.9,2.8-6.7c1.8-1.9,4-2.8,6.6-2.8c2.6,0,4.9,0.9,6.7,2.8C107.5,18.3,108.5,20.6,108.5,23.2z"/>
		<path class="st2" d="M149.2,57.4c-1,0-2.5,0.3-4.3,0.8c-1.8,0.5-3.5,1.2-5.1,1.9v31.1h-17.4V44.9h10.3l3.1,4.8
			c6.7-4.2,13-6.3,18.9-6.3c5.6,0,9.8,1.6,12.6,4.9c2.8,3.3,4.2,7.6,4.2,13v29.9h-17.4V62.9c0-1.6-0.4-2.9-1.1-4
			C152.3,57.9,151,57.4,149.2,57.4z"/>
		<path class="st3" d="M195.5,45.5h8.4l2.9,7h-11.3v24.4c0,2.5,0.5,4.4,1.6,5.9c1.1,1.4,2.7,2.1,5,2.1c1.1,0,2.6-0.3,4.5-1l2.4,7
			c-1,0.5-2.2,1-3.7,1.4c-1.5,0.4-2.9,0.6-4.2,0.6c-4.6,0-8.2-1.3-10.8-3.8c-2.6-2.5-4-6.1-4-10.7V52.4h-6.5l-0.1-7h6.6V33.9
			l9.2-2.1V45.5z"/>
		<path class="st3" d="M235.8,43.6c6.7,0,11.7,2.2,15.1,6.7c3.4,4.5,5.1,10.2,5.1,17.2v2.5h-32.8c0.4,4.5,1.8,8.1,4.3,10.7
			c2.5,2.6,6.3,3.9,11.2,3.9c2.4,0,4.5-0.3,6.3-0.9c1.8-0.6,4.3-1.7,7.6-3.2l2.9,6.7c-5.6,3.4-11.2,5.1-16.8,5.1
			c-8.1,0-14.3-2.2-18.6-6.6c-4.3-4.4-6.5-10.3-6.5-17.8c0-4.8,0.9-9,2.7-12.7c1.8-3.7,4.3-6.6,7.7-8.6
			C227.4,44.7,231.3,43.6,235.8,43.6z M235.5,51.5c-3.5,0-6.3,1.1-8.4,3.3c-2.1,2.2-3.3,5.2-3.8,9.1h23.8
			C246,55.6,242.1,51.5,235.5,51.5z"/>
		<path class="st3" d="M282,54.7c-3.1,1.6-5.8,3.6-8.2,5.9v30.6h-9.2V44.9h5.2l3,7.5c2.2-1.8,4.7-3.6,7.7-5.2c3-1.6,5.6-2.4,7.8-2.4
			l2,7.3C287.8,52.2,285.1,53,282,54.7z"/>
		<path class="st3" d="M335.4,44.9l-17.6,46.3h-8.5l-17.2-44.8l8.8-3.2l12.8,35.1l12.2-33.4H335.4z"/>
		<path class="st3" d="M351.3,44.9v46.3h-9.3V44.9H351.3z"/>
		<path class="st3" d="M382.1,43.6c6.7,0,11.7,2.2,15.1,6.7c3.4,4.5,5.1,10.2,5.1,17.2v2.5h-32.8c0.4,4.5,1.8,8.1,4.3,10.7
			c2.5,2.6,6.3,3.9,11.2,3.9c2.4,0,4.5-0.3,6.3-0.9c1.8-0.6,4.3-1.7,7.6-3.2l2.9,6.7c-5.6,3.4-11.2,5.1-16.8,5.1
			c-8.1,0-14.3-2.2-18.6-6.6c-4.3-4.4-6.5-10.3-6.5-17.8c0-4.8,0.9-9,2.7-12.7c1.8-3.7,4.3-6.6,7.7-8.6
			C373.6,44.7,377.5,43.6,382.1,43.6z M381.8,51.5c-3.5,0-6.3,1.1-8.4,3.3c-2.1,2.2-3.3,5.2-3.8,9.1h23.8
			C392.2,55.6,388.3,51.5,381.8,51.5z"/>
		<path class="st3" d="M471.2,44.9l-14.4,46.3h-8.4l-10.2-32.9l-9.6,32.9h-8.4l-14-44.7l8.8-3.2l9.5,34.3l9.1-32.6h9.6l9.5,32.6
			l9.1-32.6C461.7,44.9,471.2,44.9,471.2,44.9z"/>
	</g>
	<path class="st4" d="M356.3,29.1c0,2.5-0.9,4.7-2.8,6.6c-1.9,1.8-4.1,2.8-6.7,2.8c-2.5,0-4.7-0.9-6.6-2.8c-1.8-1.8-2.8-4-2.8-6.6
		c0-2.6,0.9-4.9,2.8-6.7c1.8-1.9,4-2.8,6.6-2.8c2.6,0,4.9,0.9,6.7,2.8C355.3,24.3,356.3,26.5,356.3,29.1z"/>
	<g id="ILcz48.tif" class="st1">
		<g>
			<path class="st2" d="M99.3,39c2.5,0,6.5-2,7.7-2c0.1,0,0.4,0,0.6,0.2c0.1,0.1,0,0.3-0.1,0.6c-1.2,2.7-2.4,5.4-3.7,8.1
				c-0.2,0.5-0.3,1-0.2,1.6c2.5,11.8,5,23.7,7.5,35.5c0.5,2.5,1,4.9,1.5,7.4c0.1,0.5,0.2,0.9-0.2,1.3c-4.2,5.3-8.4,10.7-12.6,16
				c-0.4,0.6-0.7,0.5-1.1,0c-4.2-5.4-8.4-10.7-12.6-16c-0.3-0.4-0.3-0.8-0.2-1.2c1.8-8.6,3.6-17.3,5.4-25.9
				c1.2-5.7,2.4-11.4,3.6-17.1c0.1-0.5,0.1-1-0.2-1.5c-1.3-2.7-2.5-5.4-3.7-8.1C91,37.4,90.9,37.2,91,37c0.1-0.2,0.5-0.2,0.7-0.1
				C93.4,37.1,96.9,39,99.3,39z"/>
		</g>
	</g>
</g>
<g>
	<g>
		<path class="st5" d="M200.6,49.3h8.1l2.8,6.8h-10.9v23.7c0,2.4,0.5,4.3,1.6,5.7c1,1.4,2.7,2.1,4.8,2.1c1.1,0,2.6-0.3,4.3-1
			l2.3,6.8c-0.9,0.5-2.1,0.9-3.6,1.3c-1.5,0.4-2.8,0.6-4,0.6c-4.4,0-7.9-1.2-10.5-3.7c-2.6-2.4-3.8-5.9-3.8-10.4V56.1h-6.3l-0.1-6.8
			h6.4V38.1l8.9-2V49.3z"/>
		<path class="st5" d="M237.9,47.5c6.5,0,11.4,2.2,14.7,6.5c3.3,4.3,4.9,9.9,4.9,16.7v2.4h-31.8c0.4,4.4,1.8,7.8,4.2,10.4
			c2.4,2.5,6.1,3.8,10.9,3.8c2.3,0,4.4-0.3,6.2-0.9c1.8-0.6,4.2-1.6,7.4-3.1l2.8,6.5c-5.4,3.3-10.9,4.9-16.3,4.9
			c-7.8,0-13.8-2.1-18-6.4c-4.2-4.3-6.3-10-6.3-17.2c0-4.6,0.9-8.7,2.6-12.3c1.7-3.6,4.2-6.4,7.4-8.3
			C229.7,48.5,233.5,47.5,237.9,47.5z M237.6,55.1c-3.4,0-6.1,1.1-8.1,3.2c-2,2.1-3.2,5.1-3.7,8.8h23
			C247.7,59.1,244,55.1,237.6,55.1z"/>
		<path class="st5" d="M280.8,58.2c-3,1.6-5.6,3.5-8,5.7v29.7H264V48.7h5l2.9,7.3c2.1-1.8,4.6-3.5,7.4-5c2.9-1.5,5.4-2.3,7.5-2.3
			l1.9,7.1C286.4,55.9,283.8,56.7,280.8,58.2z"/>
		<path class="st5" d="M330.7,48.7l-17,44.9h-8.2l-16.7-43.4l8.5-3.1l12.4,34l11.8-32.4H330.7z"/>
		<path class="st5" d="M344.3,48.7v44.9h-9V48.7H344.3z"/>
		<path class="st5" d="M372.2,47.5c6.5,0,11.4,2.2,14.7,6.5c3.3,4.3,4.9,9.9,4.9,16.7v2.4H360c0.4,4.4,1.8,7.8,4.2,10.4
			c2.4,2.5,6.1,3.8,10.9,3.8c2.3,0,4.4-0.3,6.2-0.9c1.8-0.6,4.2-1.6,7.4-3.1l2.8,6.5c-5.4,3.3-10.9,4.9-16.3,4.9
			c-7.8,0-13.8-2.1-18-6.4c-4.2-4.3-6.3-10-6.3-17.2c0-4.6,0.9-8.7,2.6-12.3c1.7-3.6,4.2-6.4,7.4-8.3
			C364,48.5,367.8,47.5,372.2,47.5z M371.9,55.1c-3.4,0-6.1,1.1-8.1,3.2c-2,2.1-3.2,5.1-3.7,8.8h23
			C382.1,59.1,378.3,55.1,371.9,55.1z"/>
		<path class="st5" d="M456.8,48.7l-14,44.9h-8.1l-9.9-31.9l-9.3,31.9h-8.1l-13.6-43.3l8.5-3.1l9.3,33.2l8.8-31.6h9.3l9.3,31.6
			l8.8-31.6C447.6,48.7,456.8,48.7,456.8,48.7z"/>
		<text transform="matrix(1 0 0 1 128.0014 94.4594)" class="st5 st6 st7">n</text>
	</g>
</g>
<g id="Layer_4">
	<g>
		<g>
			<path class="st5" d="M120.1,34.1c0.1,1.8-0.4,3.3-1.6,4.7c-1.2,1.4-2.7,2.1-4.5,2.2c-1.8,0.1-3.3-0.4-4.7-1.6
				c-1.4-1.2-2.1-2.7-2.2-4.5c-0.1-1.8,0.4-3.4,1.6-4.8c1.2-1.4,2.7-2.1,4.5-2.2c1.8-0.1,3.4,0.4,4.8,1.6
				C119.3,30.8,120,32.3,120.1,34.1z"/>
		</g>
		<path class="st5" d="M105.4,91.9"/>
	</g>
	<g>
		<path class="st5" d="M346.3,34.6c0,1.8-0.7,3.3-2,4.6c-1.3,1.3-2.9,1.9-4.7,1.9c-1.8,0-3.3-0.7-4.7-1.9c-1.3-1.3-2-2.8-2-4.6
			c0-1.8,0.7-3.4,2-4.7c1.3-1.3,2.9-1.9,4.7-1.9c1.8,0,3.4,0.7,4.7,1.9C345.6,31.2,346.3,32.8,346.3,34.6z"/>
	</g>
</g>
<g id="Layer_3">
	<g>
		<g>
			<path class="st5" d="M59,67L49,94H37L25.4,50.5l13.9-3.2l5.2,27.7L54,51"/>
		</g>
		<polyline class="st5" points="52,50 44.4,75.1 55.8,60.6 55,51 53,51 		"/>
		<g>
			<path class="st8" d="M52,50h15l7.7,24.2l10.1-58.4l17.7-1L82,94H69"/>
		</g>
	</g>
</g>
<g id="Layer_5">
	<g id="ILcz48.tif_1_">
		<g>
			<path class="st5" d="M113.1,46.6c2.2,0.1,5.8-1.5,6.9-1.5c0.1,0,0.4,0,0.5,0.2c0.1,0.1,0,0.3-0.2,0.5c-1.2,2.4-2.4,4.7-3.6,7.1
				c-0.2,0.5-0.3,0.9-0.2,1.4c1.8,10.6,3.5,21.3,5.2,31.9c0.4,2.2,0.7,4.4,1.1,6.7c0.1,0.4,0.1,0.8-0.2,1.2
				c-4,4.6-7.9,9.2-11.8,13.8c-0.4,0.5-0.6,0.4-0.9-0.1c-3.5-4.9-7-9.9-10.6-14.8c-0.3-0.4-0.2-0.7-0.1-1.1c2-7.6,3.9-15.2,5.9-22.9
				c1.3-5,2.6-10.1,3.9-15.1c0.1-0.5,0.1-0.9-0.1-1.4c-1-2.4-2-4.9-3-7.4c-0.2-0.4-0.2-0.6-0.2-0.7c0.1-0.2,0.4-0.1,0.6-0.1
				C107.9,44.7,110.9,46.5,113.1,46.6z"/>
		</g>
	</g>
</g>
</svg>
